<?xml version="1.0" encoding="UTF-8"?>
<svg width="172px" height="47px" viewBox="0 0 172 47" version="1.1" xmlns="http://www.w3.org/2000/svg" xmlns:xlink="http://www.w3.org/1999/xlink">
    <!-- Generator: Sketch 46.2 (44496) - http://www.bohemiancoding.com/sketch -->
    <title>pharmaLogo</title>
    <desc>Created with Sketch.</desc>
    <defs>
        <polygon id="path-1" points="0 47 172 47 172 0 0 0"></polygon>
    </defs>
    <g id="Home" stroke="none" stroke-width="1" fill="none" fill-rule="evenodd">
        <g id="Lactibon---Home" transform="translate(-1114.000000, -2438.000000)">
            <g id="FOOTER" transform="translate(0.000000, 2303.000000)">
                <g id="pharmaLogo" transform="translate(1114.000000, 135.000000)">
                    <path d="M4.2797635,40.9026748 L7.04326794,40.9026748 C8.12281645,40.9026748 8.53157753,40.565904 8.53157753,39.7611988 C8.53157753,38.931679 8.12281645,38.5913632 7.04326794,38.5913632 L4.2797635,38.5913632 L4.2797635,40.9026748 Z M0,36 L8.83552808,36 C11.8715399,36 13,37.3896229 13,39.8356429 C13,41.948437 11.9029831,43.5826619 8.86697124,43.5826619 L4.2797635,43.5826619 L4.2797635,47 L0,47 L0,36 Z" id="Fill-1" fill="#BCC3CE"></path>
                    <path d="M86.0051635,1.2999756e-05 C89.8640275,-0.0068226522 93,2.68300639 93,5.99829759 C93,9.30675313 89.8640275,11.9931643 86.0051635,12 C82.1359725,12 79,9.32042444 79,6.00513324 C79,2.68984204 82.1359725,1.2999756e-05 86.0051635,1.2999756e-05" id="Fill-3" fill="#BCC3CE"></path>
                    <path d="M80,13 C82.0901684,13.6514818 84.5263444,14.2172422 86.8283542,14.2172422 C89.0562194,14.2172422 90.9804454,13.6754837 93,13.0651482 L93,26.9897134 L80,27 L80,13 Z" id="Fill-5" fill="#BCC3CE"></path>
                    <polygon id="Fill-7" fill="#BCC3CE" points="22.8364681 42.6134752 18.1601358 42.6134752 18.1601358 47 14 47 14 36 18.1601358 36 18.1601358 39.8368794 22.8364681 39.8368794 22.8364681 36 27 36 27 47 22.8364681 47"></polygon>
                    <path d="M35.0135135,39.3322591 L34.9831081,39.3322591 L33.75,43.0580084 L36.2466216,43.0580084 L35.0135135,39.3322591 Z M32.4594595,36 L37.5371622,36 L42,47 L37.5945946,47 L37.1587838,45.7379955 L32.8378378,45.7379955 L32.3952703,47 L28,47 L32.4594595,36 Z" id="Fill-9" fill="#BCC3CE"></path>
                    <path d="M47.1743119,40.8388656 L50.1355177,40.8388656 C50.9499345,40.8388656 51.2906946,40.5020947 51.2906946,39.8037383 C51.2906946,38.9777635 50.7693316,38.7757009 50.0741809,38.7757009 L47.1743119,38.7757009 L47.1743119,40.8388656 Z M43,36 L51.7950197,36 C52.9944954,36 53.7203145,36.1063487 54.2927916,36.4005801 C55.0799476,36.8047051 55.7342071,37.8646471 55.7342071,39.0663874 C55.7342071,40.1015147 55.3184797,41.2075411 54.1053735,41.5762166 L54.1053735,41.6081212 C54.725557,41.7960039 55.229882,42.3490171 55.3048493,43.3061553 L55.4820446,45.7060909 C55.5263434,46.2023848 55.7342071,46.6596842 56,47 L51.4406291,47 C51.2906946,46.677409 51.2906946,46.2023848 51.2157274,44.9226555 C51.1714286,44.1073155 50.9056356,43.6110216 50.1355177,43.6110216 L47.1743119,43.6110216 L47.1743119,47 L43,47 L43,36 Z" id="Fill-11" fill="#BCC3CE"></path>
                    <polygon id="Fill-13" fill="#BCC3CE" points="57 36 62.7841823 36 64.4865952 42.3915566 64.5134048 42.3915566 66.2191689 36 72 36 72 47 68.2734584 47 68.2734584 39.1443764 68.2399464 39.1443764 66.058311 47 62.941689 47 60.7600536 39.1443764 60.7265416 39.1443764 60.7265416 47 57 47"></polygon>
                    <path d="M79.0118215,39.3322591 L78.984801,39.3322591 L77.7519903,43.0580084 L80.2446321,43.0580084 L79.0118215,39.3322591 Z M76.4583836,36 L81.5382388,36 L86,47 L81.5956574,47 L81.1565742,45.7379955 L76.8400483,45.7379955 L76.400965,47 L72,47 L76.4583836,36 Z" id="Fill-15" fill="#BCC3CE"></path>
                    <mask id="mask-2" fill="white">
                        <use xlink:href="#path-1"></use>
                    </mask>
                    <g id="Clip-18"></g>
                    <polygon id="Fill-17" fill="#BCC3CE" mask="url(#mask-2)" points="94 47 98 47 98 36 94 36"></polygon>
                    <polygon id="Fill-19" fill="#BCC3CE" mask="url(#mask-2)" points="101 36 105.752286 36 109.971257 42.1044151 110.018814 42.1044151 110.018814 36 114 36 114 47 109.444735 47 105.011759 40.8388656 104.984583 40.8388656 104.984583 47 101 47"></polygon>
                    <polygon id="Fill-20" fill="#BCC3CE" mask="url(#mask-2)" points="114 36 118.636833 36 120.984509 43.0580084 121.015491 43.0580084 123.366609 36 128 36 123.218589 47 118.788296 47"></polygon>
                    <polygon id="Fill-21" fill="#BCC3CE" mask="url(#mask-2)" points="129 36 140 36 140 38.6835321 133.087905 38.6835321 133.087905 40.1617789 139.503183 40.1617789 139.503183 42.841766 133.087905 42.841766 133.087905 44.3164679 140 44.3164679 140 47 129 47"></polygon>
                    <path d="M144.137749,41.2753012 C142.025938,40.9771084 141.151599,39.8240964 141.151599,38.3861446 C141.151599,35.7222892 143.922689,35 147.47998,35 C152.348779,35 154.358348,36.1927711 154.509947,38.3695783 L149.489549,38.3695783 C149.489549,37.9554217 149.225132,37.6903614 148.826744,37.5478916 C148.445983,37.3921687 147.952405,37.3325301 147.47998,37.3325301 C146.189625,37.3325301 145.74893,37.6340361 145.74893,38.0680723 C145.74893,38.3563253 145.889952,38.5418675 146.316545,38.601506 L151.477965,39.3171687 C153.653236,39.6253012 155,40.5728916 155,42.3156627 C155,44.8204819 152.828255,46 147.970033,46 C144.645429,46 141.014102,45.5692771 141,42.5442771 L146.207253,42.5442771 C146.221355,42.8888554 146.358852,43.1207831 146.669101,43.276506 C146.989927,43.4189759 147.458826,43.4951807 148.13926,43.4951807 C149.489549,43.4951807 149.852682,43.1506024 149.852682,42.660241 C149.852682,42.3587349 149.655251,42.0539157 149.073533,41.9677711 L144.137749,41.2753012 Z" id="Fill-22" fill="#BCC3CE" mask="url(#mask-2)"></path>
                    <polygon id="Fill-23" fill="#BCC3CE" mask="url(#mask-2)" points="158.894677 38.7765957 155 38.7765957 155 36 167 36 167 38.7765957 163.105323 38.7765957 163.105323 47 158.894677 47"></polygon>
                    <polygon id="Fill-24" fill="#BCC3CE" mask="url(#mask-2)" points="168 47 172 47 172 36 168 36"></polygon>
                </g>
            </g>
        </g>
    </g>
</svg>